<svg version="1.1" viewBox="0.0 0.0 864.0 480.0" fill="none" stroke="none" stroke-linecap="square" stroke-miterlimit="10" xmlns:xlink="http://www.w3.org/1999/xlink" xmlns="http://www.w3.org/2000/svg"><clipPath id="p.0"><path d="m0 0l864.0 0l0 480.0l-864.0 0l0 -480.0z" clip-rule="nonzero"/></clipPath><g clip-path="url(#p.0)"><path fill="#000000" fill-opacity="0.0" d="m0 0l864.0 0l0 480.0l-864.0 0z" fill-rule="evenodd"/><path fill="#000000" fill-opacity="0.0" d="m95.24573 1.0119226l0 478.67715" fill-rule="evenodd"/><path stroke="#595959" stroke-width="1.0" stroke-linejoin="round" stroke-linecap="butt" d="m95.24573 1.0119226l0 478.67715" fill-rule="evenodd"/><path fill="#000000" fill-opacity="0.0" d="m191.23438 0.4199475l0 478.67715" fill-rule="evenodd"/><path stroke="#595959" stroke-width="1.0" stroke-linejoin="round" stroke-linecap="butt" d="m191.23438 0.4199475l0 478.67715" fill-rule="evenodd"/><path fill="#000000" fill-opacity="0.0" d="m287.22302 1.30791l0 478.67715" fill-rule="evenodd"/><path stroke="#595959" stroke-width="1.0" stroke-linejoin="round" stroke-linecap="butt" d="m287.22302 1.30791l0 478.67715" fill-rule="evenodd"/><path fill="#000000" fill-opacity="0.0" d="m383.21164 0.71593493l0 478.67715" fill-rule="evenodd"/><path stroke="#595959" stroke-width="1.0" stroke-linejoin="round" stroke-linecap="butt" d="m383.21164 0.71593493l0 478.67715" fill-rule="evenodd"/><path fill="#000000" fill-opacity="0.0" d="m479.2003 1.4559039l0 478.67715" fill-rule="evenodd"/><path stroke="#595959" stroke-width="1.0" stroke-linejoin="round" stroke-linecap="butt" d="m479.2003 1.4559039l0 478.67715" fill-rule="evenodd"/><path fill="#000000" fill-opacity="0.0" d="m575.1889 0.86392885l0 478.6772" fill-rule="evenodd"/><path stroke="#595959" stroke-width="1.0" stroke-linejoin="round" stroke-linecap="butt" d="m575.1889 0.86392885l0 478.6772" fill-rule="evenodd"/><path fill="#000000" fill-opacity="0.0" d="m671.17755 1.7518914l0 478.67715" fill-rule="evenodd"/><path stroke="#595959" stroke-width="1.0" stroke-linejoin="round" stroke-linecap="butt" d="m671.17755 1.7518914l0 478.67715" fill-rule="evenodd"/><path fill="#000000" fill-opacity="0.0" d="m767.1662 1.159916l0 478.67715" fill-rule="evenodd"/><path stroke="#595959" stroke-width="1.0" stroke-linejoin="round" stroke-linecap="butt" d="m767.1662 1.159916l0 478.67715" fill-rule="evenodd"/><path fill="#000000" fill-opacity="0.0" d="m863.1522 1.7518914l0 478.67715" fill-rule="evenodd"/><path stroke="#595959" stroke-width="1.0" stroke-linejoin="round" stroke-linecap="butt" d="m863.1522 1.7518914l0 478.67715" fill-rule="evenodd"/><path fill="#000000" fill-opacity="0.0" d="m-0.847769 95.13425l863.68506 0" fill-rule="evenodd"/><path stroke="#595959" stroke-width="1.0" stroke-linejoin="round" stroke-linecap="butt" d="m-0.847769 95.13425l863.68506 0" fill-rule="evenodd"/><path fill="#000000" fill-opacity="0.0" d="m-0.847769 191.21834l863.68506 0" fill-rule="evenodd"/><path stroke="#595959" stroke-width="1.0" stroke-linejoin="round" stroke-linecap="butt" d="m-0.847769 191.21834l863.68506 0" fill-rule="evenodd"/><path fill="#000000" fill-opacity="0.0" d="m-0.567126 287.30243l863.68506 0" fill-rule="evenodd"/><path stroke="#595959" stroke-width="1.0" stroke-linejoin="round" stroke-linecap="butt" d="m-0.567126 287.30243l863.68506 0" fill-rule="evenodd"/><path fill="#000000" fill-opacity="0.0" d="m-0.567126 383.3865l863.68506 0" fill-rule="evenodd"/><path stroke="#595959" stroke-width="1.0" stroke-linejoin="round" stroke-linecap="butt" d="m-0.567126 383.3865l863.68506 0" fill-rule="evenodd"/><path fill="#000000" fill-opacity="0.0" d="m-0.567126 480.41263l863.68506 0" fill-rule="evenodd"/><path stroke="#595959" stroke-width="1.0" stroke-linejoin="round" stroke-linecap="butt" d="m-0.567126 480.41263l863.68506 0" fill-rule="evenodd"/></g></svg>